<mxfile host="www.draw.io" modified="2019-10-30T09:07:06.291Z" agent="Mozilla/5.0 (Windows NT 10.0; Win64; x64) AppleWebKit/537.36 (KHTML, like Gecko) Chrome/78.0.3904.70 Safari/537.36" etag="Du-nhWuOamDVXV6tDCnc" version="12.1.8" type="github" pages="1">
  <diagram id="XOLFAkgFm3Rj53Y3xqBl" name="Page-1">
    <mxGraphModel dx="1145" dy="1798" grid="1" gridSize="10" guides="1" tooltips="1" connect="1" arrows="1" fold="1" page="1" pageScale="1" pageWidth="827" pageHeight="1169" math="0" shadow="0">
      <root>
        <mxCell id="0"/>
        <mxCell id="1" parent="0"/>
        <mxCell id="I7ZnQ06CRoN9AKOw03UI-177" value="" style="rounded=0;whiteSpace=wrap;html=1;fontFamily=Verdana;fillColor=#FFFCF2;strokeColor=#d6b656;" vertex="1" parent="1">
          <mxGeometry x="129" y="-750" width="1210" height="378" as="geometry"/>
        </mxCell>
        <mxCell id="I7ZnQ06CRoN9AKOw03UI-246" style="edgeStyle=orthogonalEdgeStyle;rounded=0;orthogonalLoop=1;jettySize=auto;html=1;exitX=1;exitY=0.75;exitDx=0;exitDy=0;entryX=0.5;entryY=1;entryDx=0;entryDy=0;fontFamily=Verdana;" edge="1" parent="1" source="I7ZnQ06CRoN9AKOw03UI-198" target="I7ZnQ06CRoN9AKOw03UI-188">
          <mxGeometry relative="1" as="geometry">
            <Array as="points">
              <mxPoint x="321" y="-420"/>
              <mxPoint x="969" y="-420"/>
            </Array>
          </mxGeometry>
        </mxCell>
        <mxCell id="I7ZnQ06CRoN9AKOw03UI-198" value="" style="rounded=0;whiteSpace=wrap;html=1;fontFamily=Verdana;fillColor=#FFF8DE;strokeColor=#d6b656;" vertex="1" parent="1">
          <mxGeometry x="151" y="-592" width="170" height="182" as="geometry"/>
        </mxCell>
        <mxCell id="pD5YeeOENnrOnMWcoTvS-38" style="edgeStyle=orthogonalEdgeStyle;rounded=0;orthogonalLoop=1;jettySize=auto;html=1;exitX=1;exitY=0.5;exitDx=0;exitDy=0;entryX=0;entryY=0.5;entryDx=0;entryDy=0;fontFamily=Verdana;" parent="1" source="pD5YeeOENnrOnMWcoTvS-1" target="pD5YeeOENnrOnMWcoTvS-3" edge="1">
          <mxGeometry relative="1" as="geometry"/>
        </mxCell>
        <mxCell id="pD5YeeOENnrOnMWcoTvS-1" value="Splash Screen" style="rounded=0;whiteSpace=wrap;fontFamily=Verdana;html=1;" parent="1" vertex="1">
          <mxGeometry x="500" y="-1140" width="140" height="30" as="geometry"/>
        </mxCell>
        <mxCell id="I7ZnQ06CRoN9AKOw03UI-268" value="" style="edgeStyle=orthogonalEdgeStyle;rounded=0;orthogonalLoop=1;jettySize=auto;html=1;fontFamily=Verdana;" edge="1" parent="1" source="pD5YeeOENnrOnMWcoTvS-3" target="I7ZnQ06CRoN9AKOw03UI-267">
          <mxGeometry relative="1" as="geometry"/>
        </mxCell>
        <mxCell id="pD5YeeOENnrOnMWcoTvS-3" value="SignIn" style="rounded=0;whiteSpace=wrap;fontFamily=Verdana;html=1;" parent="1" vertex="1">
          <mxGeometry x="686.5" y="-1140" width="140" height="30" as="geometry"/>
        </mxCell>
        <mxCell id="I7ZnQ06CRoN9AKOw03UI-267" value="SignIn" style="rounded=0;whiteSpace=wrap;fontFamily=Verdana;html=1;" vertex="1" parent="1">
          <mxGeometry x="686.5" y="-1030" width="140" height="30" as="geometry"/>
        </mxCell>
        <mxCell id="I7ZnQ06CRoN9AKOw03UI-83" style="edgeStyle=orthogonalEdgeStyle;rounded=0;orthogonalLoop=1;jettySize=auto;html=1;exitX=0.75;exitY=0;exitDx=0;exitDy=0;entryX=1;entryY=0.5;entryDx=0;entryDy=0;fontFamily=Verdana;" edge="1" parent="1" source="I7ZnQ06CRoN9AKOw03UI-26" target="pD5YeeOENnrOnMWcoTvS-3">
          <mxGeometry relative="1" as="geometry"/>
        </mxCell>
        <mxCell id="I7ZnQ06CRoN9AKOw03UI-85" value="" style="group" vertex="1" connectable="0" parent="1">
          <mxGeometry x="190" y="-1060" width="1157" height="290" as="geometry"/>
        </mxCell>
        <mxCell id="I7ZnQ06CRoN9AKOw03UI-79" value="" style="group" vertex="1" connectable="0" parent="I7ZnQ06CRoN9AKOw03UI-85">
          <mxGeometry width="1157" height="290" as="geometry"/>
        </mxCell>
        <mxCell id="I7ZnQ06CRoN9AKOw03UI-26" value="" style="rounded=0;whiteSpace=wrap;html=1;fontFamily=Verdana;fillColor=#F2F6FC;strokeColor=#6c8ebf;" vertex="1" parent="I7ZnQ06CRoN9AKOw03UI-79">
          <mxGeometry x="110" y="-30" width="1010" height="320" as="geometry"/>
        </mxCell>
        <mxCell id="I7ZnQ06CRoN9AKOw03UI-78" value="" style="group" vertex="1" connectable="0" parent="I7ZnQ06CRoN9AKOw03UI-79">
          <mxGeometry x="7" y="6" width="1100" height="262" as="geometry"/>
        </mxCell>
        <mxCell id="I7ZnQ06CRoN9AKOw03UI-24" value="" style="rounded=0;whiteSpace=wrap;html=1;fontFamily=Verdana;fillColor=#dae8fc;strokeColor=#6c8ebf;" vertex="1" parent="I7ZnQ06CRoN9AKOw03UI-78">
          <mxGeometry x="150" y="32" width="320" height="162" as="geometry"/>
        </mxCell>
        <mxCell id="pD5YeeOENnrOnMWcoTvS-5" value="IdPassCheck" style="rounded=0;whiteSpace=wrap;fontFamily=Verdana;html=1;" parent="I7ZnQ06CRoN9AKOw03UI-78" vertex="1">
          <mxGeometry x="160" y="17" width="140" height="30" as="geometry"/>
        </mxCell>
        <mxCell id="pD5YeeOENnrOnMWcoTvS-6" value="EmailFail" style="rounded=0;whiteSpace=wrap;fontFamily=Verdana;html=1;" parent="I7ZnQ06CRoN9AKOw03UI-78" vertex="1">
          <mxGeometry x="320" y="86" width="140" height="30" as="geometry"/>
        </mxCell>
        <mxCell id="pD5YeeOENnrOnMWcoTvS-7" value="EmailSuccess" style="rounded=0;whiteSpace=wrap;fontFamily=Verdana;html=1;" parent="I7ZnQ06CRoN9AKOw03UI-78" vertex="1">
          <mxGeometry x="160" y="147" width="140" height="30" as="geometry"/>
        </mxCell>
        <mxCell id="pD5YeeOENnrOnMWcoTvS-39" value="" style="group" parent="I7ZnQ06CRoN9AKOw03UI-78" vertex="1" connectable="0">
          <mxGeometry x="760" y="32" width="340" height="230" as="geometry"/>
        </mxCell>
        <mxCell id="pD5YeeOENnrOnMWcoTvS-27" value="" style="rounded=0;whiteSpace=wrap;html=1;fontFamily=Verdana;fillColor=#dae8fc;strokeColor=#6c8ebf;" parent="pD5YeeOENnrOnMWcoTvS-39" vertex="1">
          <mxGeometry width="340" height="230" as="geometry"/>
        </mxCell>
        <mxCell id="pD5YeeOENnrOnMWcoTvS-11" value="Step1" style="rounded=0;whiteSpace=wrap;fontFamily=Verdana;html=1;" parent="pD5YeeOENnrOnMWcoTvS-39" vertex="1">
          <mxGeometry x="14" y="20" width="140" height="30" as="geometry"/>
        </mxCell>
        <mxCell id="pD5YeeOENnrOnMWcoTvS-12" value="Step2" style="rounded=0;whiteSpace=wrap;fontFamily=Verdana;html=1;" parent="pD5YeeOENnrOnMWcoTvS-39" vertex="1">
          <mxGeometry x="14" y="180" width="140" height="30" as="geometry"/>
        </mxCell>
        <mxCell id="pD5YeeOENnrOnMWcoTvS-26" value="Check" style="rhombus;whiteSpace=wrap;html=1;fontFamily=Verdana;" parent="pD5YeeOENnrOnMWcoTvS-39" vertex="1">
          <mxGeometry x="44" y="97.5" width="80" height="35" as="geometry"/>
        </mxCell>
        <mxCell id="pD5YeeOENnrOnMWcoTvS-28" value="" style="endArrow=classic;html=1;fontFamily=Verdana;exitX=0.5;exitY=1;exitDx=0;exitDy=0;entryX=0.5;entryY=0;entryDx=0;entryDy=0;" parent="pD5YeeOENnrOnMWcoTvS-39" source="pD5YeeOENnrOnMWcoTvS-11" target="pD5YeeOENnrOnMWcoTvS-26" edge="1">
          <mxGeometry width="50" height="50" relative="1" as="geometry">
            <mxPoint x="130" y="72.5" as="sourcePoint"/>
            <mxPoint x="180" y="22.5" as="targetPoint"/>
          </mxGeometry>
        </mxCell>
        <mxCell id="pD5YeeOENnrOnMWcoTvS-31" value="" style="endArrow=classic;html=1;fontFamily=Verdana;exitX=1;exitY=0.5;exitDx=0;exitDy=0;entryX=0;entryY=0.5;entryDx=0;entryDy=0;" parent="pD5YeeOENnrOnMWcoTvS-39" source="pD5YeeOENnrOnMWcoTvS-26" target="pD5YeeOENnrOnMWcoTvS-13" edge="1">
          <mxGeometry width="50" height="50" relative="1" as="geometry">
            <mxPoint x="93.99999999999977" y="45" as="sourcePoint"/>
            <mxPoint x="93.99999999999977" y="82.5" as="targetPoint"/>
          </mxGeometry>
        </mxCell>
        <mxCell id="pD5YeeOENnrOnMWcoTvS-33" value="" style="endArrow=classic;html=1;fontFamily=Verdana;exitX=0.5;exitY=1;exitDx=0;exitDy=0;entryX=0.5;entryY=0;entryDx=0;entryDy=0;" parent="pD5YeeOENnrOnMWcoTvS-39" source="pD5YeeOENnrOnMWcoTvS-26" target="pD5YeeOENnrOnMWcoTvS-12" edge="1">
          <mxGeometry width="50" height="50" relative="1" as="geometry">
            <mxPoint x="133.99999999999977" y="125" as="sourcePoint"/>
            <mxPoint x="180" y="125" as="targetPoint"/>
          </mxGeometry>
        </mxCell>
        <mxCell id="pD5YeeOENnrOnMWcoTvS-34" value="F" style="text;html=1;strokeColor=none;fillColor=none;align=center;verticalAlign=middle;whiteSpace=wrap;rounded=0;fontFamily=Verdana;fontStyle=1" parent="pD5YeeOENnrOnMWcoTvS-39" vertex="1">
          <mxGeometry x="124" y="95" width="40" height="20" as="geometry"/>
        </mxCell>
        <mxCell id="pD5YeeOENnrOnMWcoTvS-36" value="T" style="text;html=1;strokeColor=none;fillColor=none;align=center;verticalAlign=middle;whiteSpace=wrap;rounded=0;fontFamily=Verdana;fontStyle=1" parent="pD5YeeOENnrOnMWcoTvS-39" vertex="1">
          <mxGeometry x="50" y="140" width="40" height="20" as="geometry"/>
        </mxCell>
        <mxCell id="pD5YeeOENnrOnMWcoTvS-4" value="SignUp" style="rounded=0;whiteSpace=wrap;fontFamily=Verdana;html=1;" parent="pD5YeeOENnrOnMWcoTvS-39" vertex="1">
          <mxGeometry x="-30" y="-15" width="140" height="30" as="geometry"/>
        </mxCell>
        <mxCell id="pD5YeeOENnrOnMWcoTvS-42" value="" style="endArrow=none;html=1;fontFamily=Verdana;exitX=0.5;exitY=0;exitDx=0;exitDy=0;" parent="pD5YeeOENnrOnMWcoTvS-39" source="pD5YeeOENnrOnMWcoTvS-11" edge="1">
          <mxGeometry width="50" height="50" relative="1" as="geometry">
            <mxPoint x="34" y="65" as="sourcePoint"/>
            <mxPoint x="84" y="15" as="targetPoint"/>
          </mxGeometry>
        </mxCell>
        <mxCell id="pD5YeeOENnrOnMWcoTvS-43" value="" style="endArrow=none;html=1;fontFamily=Verdana;entryX=0.5;entryY=1;entryDx=0;entryDy=0;" parent="pD5YeeOENnrOnMWcoTvS-39" target="pD5YeeOENnrOnMWcoTvS-12" edge="1">
          <mxGeometry width="50" height="50" relative="1" as="geometry">
            <mxPoint x="84" y="230" as="sourcePoint"/>
            <mxPoint x="-470" y="250" as="targetPoint"/>
          </mxGeometry>
        </mxCell>
        <mxCell id="pD5YeeOENnrOnMWcoTvS-13" value="" style="rounded=0;whiteSpace=wrap;html=1;fontFamily=Verdana;fillColor=#cce5ff;strokeColor=#36393d;" parent="pD5YeeOENnrOnMWcoTvS-39" vertex="1">
          <mxGeometry x="170" y="27.5" width="160" height="175" as="geometry"/>
        </mxCell>
        <mxCell id="pD5YeeOENnrOnMWcoTvS-24" value="AccessTerms" style="rounded=0;whiteSpace=wrap;fontFamily=Verdana;html=1;" parent="pD5YeeOENnrOnMWcoTvS-39" vertex="1">
          <mxGeometry x="180" y="42.5" width="140" height="30" as="geometry"/>
        </mxCell>
        <mxCell id="pD5YeeOENnrOnMWcoTvS-25" value="PersonalData" style="rounded=0;whiteSpace=wrap;fontFamily=Verdana;html=1;" parent="pD5YeeOENnrOnMWcoTvS-39" vertex="1">
          <mxGeometry x="180" y="82.5" width="140" height="30" as="geometry"/>
        </mxCell>
        <mxCell id="pD5YeeOENnrOnMWcoTvS-15" value="IdOverlap" style="rounded=0;whiteSpace=wrap;fontFamily=Verdana;html=1;" parent="pD5YeeOENnrOnMWcoTvS-39" vertex="1">
          <mxGeometry x="180" y="122.5" width="140" height="30" as="geometry"/>
        </mxCell>
        <mxCell id="pD5YeeOENnrOnMWcoTvS-16" value="PasswordFail" style="rounded=0;whiteSpace=wrap;fontFamily=Verdana;html=1;" parent="pD5YeeOENnrOnMWcoTvS-39" vertex="1">
          <mxGeometry x="180" y="162.5" width="140" height="30" as="geometry"/>
        </mxCell>
        <mxCell id="I7ZnQ06CRoN9AKOw03UI-1" value="Check" style="rhombus;whiteSpace=wrap;html=1;fontFamily=Verdana;" vertex="1" parent="I7ZnQ06CRoN9AKOw03UI-78">
          <mxGeometry x="190" y="83.5" width="80" height="35" as="geometry"/>
        </mxCell>
        <mxCell id="I7ZnQ06CRoN9AKOw03UI-50" value="" style="endArrow=classic;html=1;fontFamily=Verdana;exitX=0.5;exitY=1;exitDx=0;exitDy=0;entryX=0.5;entryY=0;entryDx=0;entryDy=0;" edge="1" parent="I7ZnQ06CRoN9AKOw03UI-78" source="pD5YeeOENnrOnMWcoTvS-5" target="I7ZnQ06CRoN9AKOw03UI-1">
          <mxGeometry width="50" height="50" relative="1" as="geometry">
            <mxPoint x="233" y="49.5" as="sourcePoint"/>
            <mxPoint x="233" y="84.5" as="targetPoint"/>
          </mxGeometry>
        </mxCell>
        <mxCell id="I7ZnQ06CRoN9AKOw03UI-51" value="" style="endArrow=classic;html=1;fontFamily=Verdana;exitX=0;exitY=0.5;exitDx=0;exitDy=0;entryX=1;entryY=0.5;entryDx=0;entryDy=0;" edge="1" parent="I7ZnQ06CRoN9AKOw03UI-78" source="pD5YeeOENnrOnMWcoTvS-6" target="I7ZnQ06CRoN9AKOw03UI-1">
          <mxGeometry width="50" height="50" relative="1" as="geometry">
            <mxPoint x="243" y="57" as="sourcePoint"/>
            <mxPoint x="243" y="93.5" as="targetPoint"/>
          </mxGeometry>
        </mxCell>
        <mxCell id="I7ZnQ06CRoN9AKOw03UI-54" style="edgeStyle=orthogonalEdgeStyle;rounded=0;orthogonalLoop=1;jettySize=auto;html=1;exitX=0.5;exitY=0;exitDx=0;exitDy=0;fontFamily=Verdana;" edge="1" parent="I7ZnQ06CRoN9AKOw03UI-78" source="pD5YeeOENnrOnMWcoTvS-6">
          <mxGeometry relative="1" as="geometry">
            <mxPoint x="230" y="62" as="targetPoint"/>
            <mxPoint x="389.9902912621359" y="86" as="sourcePoint"/>
            <Array as="points">
              <mxPoint x="390" y="62"/>
            </Array>
          </mxGeometry>
        </mxCell>
        <mxCell id="I7ZnQ06CRoN9AKOw03UI-55" value="" style="endArrow=classic;html=1;fontFamily=Verdana;exitX=0.5;exitY=1;exitDx=0;exitDy=0;" edge="1" parent="I7ZnQ06CRoN9AKOw03UI-78" source="I7ZnQ06CRoN9AKOw03UI-1" target="pD5YeeOENnrOnMWcoTvS-7">
          <mxGeometry width="50" height="50" relative="1" as="geometry">
            <mxPoint x="240" y="57" as="sourcePoint"/>
            <mxPoint x="240" y="93.5" as="targetPoint"/>
          </mxGeometry>
        </mxCell>
        <mxCell id="I7ZnQ06CRoN9AKOw03UI-76" value="T" style="text;html=1;strokeColor=none;fillColor=none;align=center;verticalAlign=middle;whiteSpace=wrap;rounded=0;fontFamily=Verdana;fontStyle=1" vertex="1" parent="I7ZnQ06CRoN9AKOw03UI-78">
          <mxGeometry x="200" y="118.5" width="40" height="20" as="geometry"/>
        </mxCell>
        <mxCell id="I7ZnQ06CRoN9AKOw03UI-77" value="F" style="text;html=1;strokeColor=none;fillColor=none;align=center;verticalAlign=middle;whiteSpace=wrap;rounded=0;fontFamily=Verdana;fontStyle=1" vertex="1" parent="I7ZnQ06CRoN9AKOw03UI-78">
          <mxGeometry x="270" y="81" width="40" height="20" as="geometry"/>
        </mxCell>
        <mxCell id="I7ZnQ06CRoN9AKOw03UI-170" value="" style="endArrow=none;html=1;fontFamily=Verdana;entryX=0.5;entryY=1;entryDx=0;entryDy=0;" edge="1" parent="I7ZnQ06CRoN9AKOw03UI-78">
          <mxGeometry width="50" height="50" relative="1" as="geometry">
            <mxPoint x="229" y="194" as="sourcePoint"/>
            <mxPoint x="229" y="177.0000000000001" as="targetPoint"/>
          </mxGeometry>
        </mxCell>
        <mxCell id="I7ZnQ06CRoN9AKOw03UI-127" style="edgeStyle=orthogonalEdgeStyle;rounded=0;orthogonalLoop=1;jettySize=auto;html=1;exitX=1;exitY=0.5;exitDx=0;exitDy=0;fontFamily=Verdana;entryX=0.5;entryY=1;entryDx=0;entryDy=0;" edge="1" parent="I7ZnQ06CRoN9AKOw03UI-79" source="I7ZnQ06CRoN9AKOw03UI-25" target="pD5YeeOENnrOnMWcoTvS-10">
          <mxGeometry relative="1" as="geometry"/>
        </mxCell>
        <mxCell id="I7ZnQ06CRoN9AKOw03UI-25" value="Login Check" style="rhombus;whiteSpace=wrap;html=1;fontFamily=Verdana;" vertex="1" parent="I7ZnQ06CRoN9AKOw03UI-79">
          <mxGeometry x="520" y="98" width="100" height="58" as="geometry"/>
        </mxCell>
        <mxCell id="I7ZnQ06CRoN9AKOw03UI-126" value="F" style="text;html=1;strokeColor=none;fillColor=none;align=center;verticalAlign=middle;whiteSpace=wrap;rounded=0;fontFamily=Verdana;fontStyle=1" vertex="1" parent="I7ZnQ06CRoN9AKOw03UI-79">
          <mxGeometry x="617" y="135" width="40" height="20" as="geometry"/>
        </mxCell>
        <mxCell id="I7ZnQ06CRoN9AKOw03UI-168" value="T" style="text;html=1;strokeColor=none;fillColor=none;align=center;verticalAlign=middle;whiteSpace=wrap;rounded=0;fontFamily=Verdana;fontStyle=1" vertex="1" parent="I7ZnQ06CRoN9AKOw03UI-79">
          <mxGeometry x="530" y="157.5" width="40" height="20" as="geometry"/>
        </mxCell>
        <mxCell id="pD5YeeOENnrOnMWcoTvS-10" value="IdPassFail" style="rounded=0;whiteSpace=wrap;fontFamily=Verdana;html=1;" parent="I7ZnQ06CRoN9AKOw03UI-79" vertex="1">
          <mxGeometry x="570" y="22" width="140" height="30" as="geometry"/>
        </mxCell>
        <mxCell id="I7ZnQ06CRoN9AKOw03UI-227" value="Login" style="text;html=1;strokeColor=none;fillColor=none;align=center;verticalAlign=middle;whiteSpace=wrap;rounded=0;fontFamily=Verdana;fontStyle=1" vertex="1" parent="I7ZnQ06CRoN9AKOw03UI-79">
          <mxGeometry x="548" y="73" width="40" height="20" as="geometry"/>
        </mxCell>
        <mxCell id="I7ZnQ06CRoN9AKOw03UI-262" style="edgeStyle=orthogonalEdgeStyle;rounded=0;orthogonalLoop=1;jettySize=auto;html=1;exitX=0.25;exitY=1;exitDx=0;exitDy=0;entryX=0.75;entryY=0;entryDx=0;entryDy=0;fontFamily=Verdana;" edge="1" parent="I7ZnQ06CRoN9AKOw03UI-79" source="I7ZnQ06CRoN9AKOw03UI-24" target="I7ZnQ06CRoN9AKOw03UI-26">
          <mxGeometry relative="1" as="geometry">
            <Array as="points">
              <mxPoint x="237" y="220"/>
              <mxPoint x="497" y="220"/>
              <mxPoint x="497"/>
              <mxPoint x="868"/>
            </Array>
          </mxGeometry>
        </mxCell>
        <mxCell id="I7ZnQ06CRoN9AKOw03UI-88" value="" style="endArrow=classic;html=1;fontFamily=Verdana;" edge="1" parent="1">
          <mxGeometry width="50" height="50" relative="1" as="geometry">
            <mxPoint x="757" y="-1110" as="sourcePoint"/>
            <mxPoint x="757" y="-1091" as="targetPoint"/>
          </mxGeometry>
        </mxCell>
        <mxCell id="I7ZnQ06CRoN9AKOw03UI-128" value="" style="endArrow=classic;html=1;fontFamily=Verdana;exitX=0.5;exitY=1;exitDx=0;exitDy=0;" edge="1" parent="1" source="I7ZnQ06CRoN9AKOw03UI-25" target="I7ZnQ06CRoN9AKOw03UI-178">
          <mxGeometry width="50" height="50" relative="1" as="geometry">
            <mxPoint x="210" y="-740" as="sourcePoint"/>
            <mxPoint x="760" y="-760" as="targetPoint"/>
          </mxGeometry>
        </mxCell>
        <mxCell id="I7ZnQ06CRoN9AKOw03UI-173" style="edgeStyle=orthogonalEdgeStyle;rounded=0;orthogonalLoop=1;jettySize=auto;html=1;exitX=0;exitY=0.25;exitDx=0;exitDy=0;fontFamily=Verdana;" edge="1" parent="1" source="pD5YeeOENnrOnMWcoTvS-13">
          <mxGeometry relative="1" as="geometry">
            <mxPoint x="1040" y="-951" as="targetPoint"/>
          </mxGeometry>
        </mxCell>
        <mxCell id="I7ZnQ06CRoN9AKOw03UI-189" style="edgeStyle=orthogonalEdgeStyle;rounded=0;orthogonalLoop=1;jettySize=auto;html=1;entryX=0.5;entryY=0;entryDx=0;entryDy=0;fontFamily=Verdana;" edge="1" parent="1" source="I7ZnQ06CRoN9AKOw03UI-174" target="I7ZnQ06CRoN9AKOw03UI-185">
          <mxGeometry relative="1" as="geometry"/>
        </mxCell>
        <mxCell id="I7ZnQ06CRoN9AKOw03UI-229" style="edgeStyle=orthogonalEdgeStyle;rounded=0;orthogonalLoop=1;jettySize=auto;html=1;exitX=1;exitY=0.5;exitDx=0;exitDy=0;fontFamily=Verdana;" edge="1" parent="1" source="I7ZnQ06CRoN9AKOw03UI-174" target="I7ZnQ06CRoN9AKOw03UI-188">
          <mxGeometry relative="1" as="geometry"/>
        </mxCell>
        <mxCell id="I7ZnQ06CRoN9AKOw03UI-174" value="First Check" style="rhombus;whiteSpace=wrap;html=1;fontFamily=Verdana;" vertex="1" parent="1">
          <mxGeometry x="709" y="-679" width="100" height="58" as="geometry"/>
        </mxCell>
        <mxCell id="I7ZnQ06CRoN9AKOw03UI-178" value="Home&amp;amp;List" style="rounded=0;whiteSpace=wrap;fontFamily=Verdana;html=1;" vertex="1" parent="1">
          <mxGeometry x="689" y="-730" width="140" height="30" as="geometry"/>
        </mxCell>
        <mxCell id="I7ZnQ06CRoN9AKOw03UI-240" style="edgeStyle=orthogonalEdgeStyle;rounded=0;orthogonalLoop=1;jettySize=auto;html=1;exitX=0.5;exitY=1;exitDx=0;exitDy=0;entryX=0.5;entryY=1;entryDx=0;entryDy=0;fontFamily=Verdana;" edge="1" parent="1" source="I7ZnQ06CRoN9AKOw03UI-179" target="I7ZnQ06CRoN9AKOw03UI-188">
          <mxGeometry relative="1" as="geometry"/>
        </mxCell>
        <mxCell id="I7ZnQ06CRoN9AKOw03UI-244" style="edgeStyle=orthogonalEdgeStyle;rounded=0;orthogonalLoop=1;jettySize=auto;html=1;exitX=0.5;exitY=1;exitDx=0;exitDy=0;fontFamily=Verdana;" edge="1" parent="1" source="I7ZnQ06CRoN9AKOw03UI-179">
          <mxGeometry relative="1" as="geometry">
            <mxPoint x="427.3333333333335" y="-453.83333333333326" as="targetPoint"/>
          </mxGeometry>
        </mxCell>
        <mxCell id="I7ZnQ06CRoN9AKOw03UI-179" value="Withdraw&lt;span style=&quot;font-family: &amp;#34;helvetica&amp;#34; , &amp;#34;arial&amp;#34; , sans-serif ; font-size: 0px ; white-space: nowrap&quot;&gt;%3CmxGraphModel%3E%3Croot%3E%3CmxCell%20id%3D%220%22%2F%3E%3CmxCell%20id%3D%221%22%20parent%3D%220%22%2F%3E%3CmxCell%20id%3D%222%22%20value%3D%22Home%26amp%3Bamp%3BList%22%20style%3D%22rounded%3D0%3BwhiteSpace%3Dwrap%3BfontFamily%3DVerdana%3Bhtml%3D1%3B%22%20vertex%3D%221%22%20parent%3D%221%22%3E%3CmxGeometry%20x%3D%22698.5%22%20y%3D%22-690%22%20width%3D%22140%22%20height%3D%2230%22%20as%3D%22geometry%22%2F%3E%3C%2FmxCell%3E%3C%2Froot%3E%3C%2FmxGraphModel%3E&lt;/span&gt;" style="rounded=0;whiteSpace=wrap;fontFamily=Verdana;html=1;" vertex="1" parent="1">
          <mxGeometry x="357" y="-505" width="140" height="30" as="geometry"/>
        </mxCell>
        <mxCell id="I7ZnQ06CRoN9AKOw03UI-203" style="edgeStyle=orthogonalEdgeStyle;rounded=0;orthogonalLoop=1;jettySize=auto;html=1;exitX=0.5;exitY=1;exitDx=0;exitDy=0;entryX=0.5;entryY=0;entryDx=0;entryDy=0;fontFamily=Verdana;" edge="1" parent="1" source="I7ZnQ06CRoN9AKOw03UI-180" target="I7ZnQ06CRoN9AKOw03UI-182">
          <mxGeometry relative="1" as="geometry">
            <Array as="points">
              <mxPoint x="427" y="-530"/>
              <mxPoint x="729" y="-530"/>
            </Array>
          </mxGeometry>
        </mxCell>
        <mxCell id="I7ZnQ06CRoN9AKOw03UI-205" style="edgeStyle=orthogonalEdgeStyle;rounded=0;orthogonalLoop=1;jettySize=auto;html=1;exitX=0;exitY=0.25;exitDx=0;exitDy=0;entryX=1;entryY=0.5;entryDx=0;entryDy=0;fontFamily=Verdana;" edge="1" parent="1" source="I7ZnQ06CRoN9AKOw03UI-180" target="I7ZnQ06CRoN9AKOw03UI-185">
          <mxGeometry relative="1" as="geometry"/>
        </mxCell>
        <mxCell id="I7ZnQ06CRoN9AKOw03UI-207" style="edgeStyle=orthogonalEdgeStyle;rounded=0;orthogonalLoop=1;jettySize=auto;html=1;exitX=0.5;exitY=1;exitDx=0;exitDy=0;entryX=0.5;entryY=0;entryDx=0;entryDy=0;fontFamily=Verdana;" edge="1" parent="1" source="I7ZnQ06CRoN9AKOw03UI-180" target="I7ZnQ06CRoN9AKOw03UI-179">
          <mxGeometry relative="1" as="geometry">
            <Array as="points">
              <mxPoint x="427" y="-580"/>
            </Array>
          </mxGeometry>
        </mxCell>
        <mxCell id="I7ZnQ06CRoN9AKOw03UI-209" style="edgeStyle=orthogonalEdgeStyle;rounded=0;orthogonalLoop=1;jettySize=auto;html=1;exitX=0.5;exitY=1;exitDx=0;exitDy=0;entryX=0.5;entryY=0;entryDx=0;entryDy=0;fontFamily=Verdana;" edge="1" parent="1" source="I7ZnQ06CRoN9AKOw03UI-180" target="I7ZnQ06CRoN9AKOw03UI-181">
          <mxGeometry relative="1" as="geometry">
            <Array as="points">
              <mxPoint x="427" y="-580"/>
              <mxPoint x="427" y="-530"/>
              <mxPoint x="579" y="-530"/>
            </Array>
          </mxGeometry>
        </mxCell>
        <mxCell id="I7ZnQ06CRoN9AKOw03UI-180" value="SettingView" style="rounded=0;whiteSpace=wrap;fontFamily=Verdana;html=1;" vertex="1" parent="1">
          <mxGeometry x="359" y="-610" width="140" height="30" as="geometry"/>
        </mxCell>
        <mxCell id="I7ZnQ06CRoN9AKOw03UI-242" style="edgeStyle=orthogonalEdgeStyle;rounded=0;orthogonalLoop=1;jettySize=auto;html=1;exitX=0.5;exitY=1;exitDx=0;exitDy=0;fontFamily=Verdana;" edge="1" parent="1" source="I7ZnQ06CRoN9AKOw03UI-181">
          <mxGeometry relative="1" as="geometry">
            <mxPoint x="579" y="-454" as="targetPoint"/>
          </mxGeometry>
        </mxCell>
        <mxCell id="I7ZnQ06CRoN9AKOw03UI-181" value="FolderDelete" style="rounded=0;whiteSpace=wrap;fontFamily=Verdana;html=1;" vertex="1" parent="1">
          <mxGeometry x="509" y="-505" width="140" height="30" as="geometry"/>
        </mxCell>
        <mxCell id="I7ZnQ06CRoN9AKOw03UI-243" style="edgeStyle=orthogonalEdgeStyle;rounded=0;orthogonalLoop=1;jettySize=auto;html=1;exitX=0.5;exitY=1;exitDx=0;exitDy=0;fontFamily=Verdana;" edge="1" parent="1" source="I7ZnQ06CRoN9AKOw03UI-182">
          <mxGeometry relative="1" as="geometry">
            <mxPoint x="729" y="-454" as="targetPoint"/>
          </mxGeometry>
        </mxCell>
        <mxCell id="I7ZnQ06CRoN9AKOw03UI-182" value="FileCreate" style="rounded=0;whiteSpace=wrap;fontFamily=Verdana;html=1;" vertex="1" parent="1">
          <mxGeometry x="659" y="-505" width="140" height="30" as="geometry"/>
        </mxCell>
        <mxCell id="I7ZnQ06CRoN9AKOw03UI-252" style="edgeStyle=orthogonalEdgeStyle;rounded=0;orthogonalLoop=1;jettySize=auto;html=1;fontFamily=Verdana;" edge="1" parent="1" source="I7ZnQ06CRoN9AKOw03UI-183">
          <mxGeometry relative="1" as="geometry">
            <mxPoint x="1089" y="-610" as="targetPoint"/>
            <Array as="points">
              <mxPoint x="1252" y="-650"/>
            </Array>
          </mxGeometry>
        </mxCell>
        <mxCell id="I7ZnQ06CRoN9AKOw03UI-183" value="DeleteQuestion&lt;span style=&quot;font-family: &amp;#34;helvetica&amp;#34; , &amp;#34;arial&amp;#34; , sans-serif ; font-size: 0px ; white-space: nowrap&quot;&gt;%3CmxGraphModel%3E%3Croot%3E%3CmxCell%20id%3D%220%22%2F%3E%3CmxCell%20id%3D%221%22%20parent%3D%220%22%2F%3E%3CmxCell%20id%3D%222%22%20value%3D%22FileCreate%22%20style%3D%22rounded%3D0%3BwhiteSpace%3Dwrap%3BfontFamily%3DVerdana%3Bhtml%3D1%3B%22%20vertex%3D%221%22%20parent%3D%221%22%3E%3CmxGeometry%20x%3D%22870%22%20y%3D%22-620%22%20width%3D%22140%22%20height%3D%2230%22%20as%3D%22geometry%22%2F%3E%3C%2FmxCell%3E%3C%2Froot%3E%3C%2FmxGraphModel%3E&lt;/span&gt;" style="rounded=0;whiteSpace=wrap;fontFamily=Verdana;html=1;" vertex="1" parent="1">
          <mxGeometry x="1179" y="-558.5" width="140" height="30" as="geometry"/>
        </mxCell>
        <mxCell id="I7ZnQ06CRoN9AKOw03UI-194" style="edgeStyle=orthogonalEdgeStyle;rounded=0;orthogonalLoop=1;jettySize=auto;html=1;exitX=0.5;exitY=1;exitDx=0;exitDy=0;entryX=0.5;entryY=0;entryDx=0;entryDy=0;fontFamily=Verdana;" edge="1" parent="1" source="I7ZnQ06CRoN9AKOw03UI-185" target="I7ZnQ06CRoN9AKOw03UI-190">
          <mxGeometry relative="1" as="geometry"/>
        </mxCell>
        <mxCell id="I7ZnQ06CRoN9AKOw03UI-185" value="Guide" style="rounded=0;whiteSpace=wrap;fontFamily=Verdana;html=1;" vertex="1" parent="1">
          <mxGeometry x="166" y="-617" width="140" height="30" as="geometry"/>
        </mxCell>
        <mxCell id="I7ZnQ06CRoN9AKOw03UI-186" value="" style="endArrow=classic;html=1;fontFamily=Verdana;exitX=0.5;exitY=1;exitDx=0;exitDy=0;entryX=0.5;entryY=0;entryDx=0;entryDy=0;" edge="1" parent="1" source="I7ZnQ06CRoN9AKOw03UI-178" target="I7ZnQ06CRoN9AKOw03UI-174">
          <mxGeometry width="50" height="50" relative="1" as="geometry">
            <mxPoint x="769" y="-884" as="sourcePoint"/>
            <mxPoint x="769" y="-720" as="targetPoint"/>
          </mxGeometry>
        </mxCell>
        <mxCell id="I7ZnQ06CRoN9AKOw03UI-228" style="edgeStyle=orthogonalEdgeStyle;rounded=0;orthogonalLoop=1;jettySize=auto;html=1;exitX=0;exitY=0.25;exitDx=0;exitDy=0;entryX=1;entryY=0.5;entryDx=0;entryDy=0;fontFamily=Verdana;" edge="1" parent="1" source="I7ZnQ06CRoN9AKOw03UI-188" target="I7ZnQ06CRoN9AKOw03UI-180">
          <mxGeometry relative="1" as="geometry">
            <Array as="points">
              <mxPoint x="899" y="-650"/>
              <mxPoint x="969" y="-650"/>
              <mxPoint x="969" y="-595"/>
            </Array>
          </mxGeometry>
        </mxCell>
        <mxCell id="I7ZnQ06CRoN9AKOw03UI-237" style="edgeStyle=orthogonalEdgeStyle;rounded=0;orthogonalLoop=1;jettySize=auto;html=1;exitX=0.5;exitY=1;exitDx=0;exitDy=0;fontFamily=Verdana;" edge="1" parent="1" source="I7ZnQ06CRoN9AKOw03UI-188">
          <mxGeometry relative="1" as="geometry">
            <mxPoint x="1089" y="-560" as="targetPoint"/>
            <Array as="points">
              <mxPoint x="969" y="-650"/>
              <mxPoint x="1089" y="-650"/>
            </Array>
          </mxGeometry>
        </mxCell>
        <mxCell id="I7ZnQ06CRoN9AKOw03UI-188" value="Main" style="rounded=0;whiteSpace=wrap;fontFamily=Verdana;html=1;" vertex="1" parent="1">
          <mxGeometry x="899" y="-665" width="140" height="30" as="geometry"/>
        </mxCell>
        <mxCell id="I7ZnQ06CRoN9AKOw03UI-195" style="edgeStyle=orthogonalEdgeStyle;rounded=0;orthogonalLoop=1;jettySize=auto;html=1;exitX=0.5;exitY=1;exitDx=0;exitDy=0;entryX=0.5;entryY=0;entryDx=0;entryDy=0;fontFamily=Verdana;" edge="1" parent="1" source="I7ZnQ06CRoN9AKOw03UI-190" target="I7ZnQ06CRoN9AKOw03UI-191">
          <mxGeometry relative="1" as="geometry"/>
        </mxCell>
        <mxCell id="I7ZnQ06CRoN9AKOw03UI-190" value="Guide1" style="rounded=0;whiteSpace=wrap;fontFamily=Verdana;html=1;" vertex="1" parent="1">
          <mxGeometry x="165" y="-572" width="140" height="30" as="geometry"/>
        </mxCell>
        <mxCell id="I7ZnQ06CRoN9AKOw03UI-196" style="edgeStyle=orthogonalEdgeStyle;rounded=0;orthogonalLoop=1;jettySize=auto;html=1;exitX=0.5;exitY=1;exitDx=0;exitDy=0;entryX=0.5;entryY=0;entryDx=0;entryDy=0;fontFamily=Verdana;" edge="1" parent="1" source="I7ZnQ06CRoN9AKOw03UI-191" target="I7ZnQ06CRoN9AKOw03UI-192">
          <mxGeometry relative="1" as="geometry"/>
        </mxCell>
        <mxCell id="I7ZnQ06CRoN9AKOw03UI-191" value="Guide2" style="rounded=0;whiteSpace=wrap;fontFamily=Verdana;html=1;" vertex="1" parent="1">
          <mxGeometry x="165" y="-532" width="140" height="30" as="geometry"/>
        </mxCell>
        <mxCell id="I7ZnQ06CRoN9AKOw03UI-197" style="edgeStyle=orthogonalEdgeStyle;rounded=0;orthogonalLoop=1;jettySize=auto;html=1;exitX=0.5;exitY=1;exitDx=0;exitDy=0;entryX=0.5;entryY=0;entryDx=0;entryDy=0;fontFamily=Verdana;" edge="1" parent="1" source="I7ZnQ06CRoN9AKOw03UI-192" target="I7ZnQ06CRoN9AKOw03UI-193">
          <mxGeometry relative="1" as="geometry"/>
        </mxCell>
        <mxCell id="I7ZnQ06CRoN9AKOw03UI-192" value="Guide3" style="rounded=0;whiteSpace=wrap;fontFamily=Verdana;html=1;" vertex="1" parent="1">
          <mxGeometry x="165" y="-492" width="140" height="30" as="geometry"/>
        </mxCell>
        <mxCell id="I7ZnQ06CRoN9AKOw03UI-193" value="Guide4" style="rounded=0;whiteSpace=wrap;fontFamily=Verdana;html=1;" vertex="1" parent="1">
          <mxGeometry x="165" y="-452" width="140" height="30" as="geometry"/>
        </mxCell>
        <mxCell id="I7ZnQ06CRoN9AKOw03UI-210" value="Main Layer" style="text;html=1;strokeColor=none;fillColor=none;align=center;verticalAlign=middle;whiteSpace=wrap;rounded=0;fontFamily=Verdana;fontStyle=1" vertex="1" parent="1">
          <mxGeometry x="137.5" y="-740.5" width="40" height="20" as="geometry"/>
        </mxCell>
        <mxCell id="I7ZnQ06CRoN9AKOw03UI-218" value="" style="group" vertex="1" connectable="0" parent="1">
          <mxGeometry x="1029.5" y="-558.5" width="121" height="30" as="geometry"/>
        </mxCell>
        <mxCell id="I7ZnQ06CRoN9AKOw03UI-212" value="" style="endArrow=none;dashed=1;html=1;fontFamily=Verdana;" edge="1" parent="I7ZnQ06CRoN9AKOw03UI-218">
          <mxGeometry width="50" height="50" relative="1" as="geometry">
            <mxPoint as="sourcePoint"/>
            <mxPoint x="120" as="targetPoint"/>
          </mxGeometry>
        </mxCell>
        <mxCell id="I7ZnQ06CRoN9AKOw03UI-213" value="" style="endArrow=none;dashed=1;html=1;fontFamily=Verdana;" edge="1" parent="I7ZnQ06CRoN9AKOw03UI-218">
          <mxGeometry width="50" height="50" relative="1" as="geometry">
            <mxPoint as="sourcePoint"/>
            <mxPoint y="30" as="targetPoint"/>
          </mxGeometry>
        </mxCell>
        <mxCell id="I7ZnQ06CRoN9AKOw03UI-214" value="" style="endArrow=none;dashed=1;html=1;fontFamily=Verdana;" edge="1" parent="I7ZnQ06CRoN9AKOw03UI-218">
          <mxGeometry width="50" height="50" relative="1" as="geometry">
            <mxPoint y="30" as="sourcePoint"/>
            <mxPoint x="120" y="30" as="targetPoint"/>
          </mxGeometry>
        </mxCell>
        <mxCell id="I7ZnQ06CRoN9AKOw03UI-215" value="" style="endArrow=none;dashed=1;html=1;fontFamily=Verdana;" edge="1" parent="I7ZnQ06CRoN9AKOw03UI-218">
          <mxGeometry width="50" height="50" relative="1" as="geometry">
            <mxPoint x="120" as="sourcePoint"/>
            <mxPoint x="120" y="30" as="targetPoint"/>
          </mxGeometry>
        </mxCell>
        <mxCell id="I7ZnQ06CRoN9AKOw03UI-216" value="Object" style="text;html=1;strokeColor=none;fillColor=none;align=center;verticalAlign=middle;whiteSpace=wrap;rounded=0;fontFamily=Verdana;" vertex="1" parent="I7ZnQ06CRoN9AKOw03UI-218">
          <mxGeometry x="4" y="5" width="117" height="20" as="geometry"/>
        </mxCell>
        <mxCell id="I7ZnQ06CRoN9AKOw03UI-245" value="Yes / No" style="text;html=1;strokeColor=none;fillColor=none;align=center;verticalAlign=middle;whiteSpace=wrap;rounded=0;fontFamily=Verdana;" vertex="1" parent="1">
          <mxGeometry x="539" y="-449" width="80" height="20" as="geometry"/>
        </mxCell>
        <mxCell id="I7ZnQ06CRoN9AKOw03UI-248" value="Only First" style="text;html=1;strokeColor=none;fillColor=none;align=center;verticalAlign=middle;whiteSpace=wrap;rounded=0;fontFamily=Verdana;" vertex="1" parent="1">
          <mxGeometry x="151" y="-402" width="80" height="20" as="geometry"/>
        </mxCell>
        <mxCell id="I7ZnQ06CRoN9AKOw03UI-249" value="" style="rounded=0;whiteSpace=wrap;html=1;fontFamily=Verdana;fillColor=#FFFAFE;strokeColor=#9673a6;" vertex="1" parent="1">
          <mxGeometry x="129" y="-331" width="1202" height="490" as="geometry"/>
        </mxCell>
        <mxCell id="I7ZnQ06CRoN9AKOw03UI-250" value="Scan&lt;br&gt;Layer" style="text;html=1;strokeColor=none;fillColor=none;align=center;verticalAlign=middle;whiteSpace=wrap;rounded=0;fontFamily=Verdana;fontStyle=1" vertex="1" parent="1">
          <mxGeometry x="138.5" y="-321" width="40" height="20" as="geometry"/>
        </mxCell>
        <mxCell id="I7ZnQ06CRoN9AKOw03UI-251" style="edgeStyle=orthogonalEdgeStyle;rounded=0;orthogonalLoop=1;jettySize=auto;html=1;fontFamily=Verdana;entryX=0;entryY=0.5;entryDx=0;entryDy=0;" edge="1" parent="1" source="I7ZnQ06CRoN9AKOw03UI-216" target="I7ZnQ06CRoN9AKOw03UI-183">
          <mxGeometry relative="1" as="geometry">
            <mxPoint x="1171" y="-544" as="targetPoint"/>
            <Array as="points"/>
          </mxGeometry>
        </mxCell>
        <mxCell id="I7ZnQ06CRoN9AKOw03UI-253" value="Yes / No" style="text;html=1;strokeColor=none;fillColor=none;align=center;verticalAlign=middle;whiteSpace=wrap;rounded=0;fontFamily=Verdana;" vertex="1" parent="1">
          <mxGeometry x="1179" y="-615" width="80" height="20" as="geometry"/>
        </mxCell>
        <mxCell id="I7ZnQ06CRoN9AKOw03UI-254" value="ModeSelection" style="rounded=0;whiteSpace=wrap;fontFamily=Verdana;html=1;" vertex="1" parent="1">
          <mxGeometry x="768.5" y="-311" width="140" height="30" as="geometry"/>
        </mxCell>
        <mxCell id="I7ZnQ06CRoN9AKOw03UI-255" value="" style="rounded=0;whiteSpace=wrap;html=1;fontFamily=Verdana;fillColor=#FFF5FF;strokeColor=#9673a6;" vertex="1" parent="1">
          <mxGeometry x="158" y="-270" width="600" height="403" as="geometry"/>
        </mxCell>
        <mxCell id="I7ZnQ06CRoN9AKOw03UI-256" value="Object Scan Layer" style="text;html=1;strokeColor=none;fillColor=none;align=center;verticalAlign=middle;whiteSpace=wrap;rounded=0;fontFamily=Verdana;fontStyle=1" vertex="1" parent="1">
          <mxGeometry x="165" y="-264" width="91" height="20" as="geometry"/>
        </mxCell>
        <mxCell id="I7ZnQ06CRoN9AKOw03UI-257" style="edgeStyle=orthogonalEdgeStyle;rounded=0;orthogonalLoop=1;jettySize=auto;html=1;exitX=0.5;exitY=1;exitDx=0;exitDy=0;entryX=0.5;entryY=0;entryDx=0;entryDy=0;fontFamily=Verdana;" edge="1" parent="1" source="I7ZnQ06CRoN9AKOw03UI-198" target="I7ZnQ06CRoN9AKOw03UI-254">
          <mxGeometry relative="1" as="geometry">
            <Array as="points">
              <mxPoint x="237" y="-351"/>
              <mxPoint x="838" y="-351"/>
            </Array>
          </mxGeometry>
        </mxCell>
        <mxCell id="I7ZnQ06CRoN9AKOw03UI-260" value="Lost ID&lt;span style=&quot;font-family: &amp;#34;helvetica&amp;#34; , &amp;#34;arial&amp;#34; , sans-serif ; font-size: 0px ; white-space: nowrap&quot;&gt;%3CmxGraphModel%3E%3Croot%3E%3CmxCell%20id%3D%220%22%2F%3E%3CmxCell%20id%3D%221%22%20parent%3D%220%22%2F%3E%3CmxCell%20id%3D%222%22%20value%3D%22Only%20First%22%20style%3D%22text%3Bhtml%3D1%3BstrokeColor%3Dnone%3BfillColor%3Dnone%3Balign%3Dcenter%3BverticalAlign%3Dmiddle%3BwhiteSpace%3Dwrap%3Brounded%3D0%3BfontFamily%3DVerdana%3B%22%20vertex%3D%221%22%20parent%3D%221%22%3E%3CmxGeometry%20x%3D%22151%22%20y%3D%22-452%22%20width%3D%2280%22%20height%3D%2220%22%20as%3D%22geometry%22%2F%3E%3C%2FmxCell%3E%3C%2Froot%3E%3C%2FmxGraphModel%3E&lt;/span&gt;" style="text;html=1;strokeColor=none;fillColor=none;align=center;verticalAlign=middle;whiteSpace=wrap;rounded=0;fontFamily=Verdana;" vertex="1" parent="1">
          <mxGeometry x="494" y="-1032.5" width="80" height="20" as="geometry"/>
        </mxCell>
        <mxCell id="I7ZnQ06CRoN9AKOw03UI-261" value="Join" style="text;html=1;strokeColor=none;fillColor=none;align=center;verticalAlign=middle;whiteSpace=wrap;rounded=0;fontFamily=Verdana;" vertex="1" parent="1">
          <mxGeometry x="1072" y="-1033.5" width="80" height="20" as="geometry"/>
        </mxCell>
        <mxCell id="I7ZnQ06CRoN9AKOw03UI-47" value="Login Layer" style="text;html=1;strokeColor=none;fillColor=none;align=center;verticalAlign=middle;whiteSpace=wrap;rounded=0;fontFamily=Verdana;fontStyle=1" vertex="1" parent="1">
          <mxGeometry x="309" y="-1079" width="40" height="20" as="geometry"/>
        </mxCell>
        <mxCell id="I7ZnQ06CRoN9AKOw03UI-263" style="edgeStyle=orthogonalEdgeStyle;rounded=0;orthogonalLoop=1;jettySize=auto;html=1;exitX=0.5;exitY=0;exitDx=0;exitDy=0;fontFamily=Verdana;" edge="1" parent="1" source="pD5YeeOENnrOnMWcoTvS-10">
          <mxGeometry relative="1" as="geometry">
            <mxPoint x="830" y="-1060" as="targetPoint"/>
          </mxGeometry>
        </mxCell>
        <mxCell id="I7ZnQ06CRoN9AKOw03UI-266" style="edgeStyle=orthogonalEdgeStyle;rounded=0;orthogonalLoop=1;jettySize=auto;html=1;exitX=0.25;exitY=1;exitDx=0;exitDy=0;fontFamily=Verdana;" edge="1" parent="1" source="pD5YeeOENnrOnMWcoTvS-27">
          <mxGeometry relative="1" as="geometry">
            <mxPoint x="910" y="-1060" as="targetPoint"/>
            <Array as="points">
              <mxPoint x="1042" y="-780"/>
              <mxPoint x="910" y="-780"/>
            </Array>
          </mxGeometry>
        </mxCell>
      </root>
    </mxGraphModel>
  </diagram>
</mxfile>
